<svg width="22" height="24" viewBox="0 0 22 24" fill="none" xmlns="http://www.w3.org/2000/svg">
<path d="M6.89329 14.8505C6.97085 14.6289 6.85402 14.3865 6.63259 14.309C6.41104 14.2315 6.16863 14.3482 6.0911 14.5697L5.42131 16.4834L4.75154 14.5697C4.67399 14.3482 4.43152 14.2315 4.21006 14.309C3.98854 14.3866 3.87177 14.629 3.94932 14.8505L5.02018 17.9102C5.04176 17.9718 5.07656 18.0261 5.1207 18.0702C5.19871 18.1482 5.30598 18.1947 5.42128 18.1948C5.60188 18.1948 5.76276 18.0806 5.82238 17.9102L6.89329 14.8505Z" fill="#57535A"/>
<path d="M10.3657 15.7809C10.3657 14.9562 9.69467 14.2851 8.86982 14.285C8.04501 14.2851 7.37398 14.9561 7.37395 15.7809L7.37395 16.6988C7.37395 17.1112 7.54171 17.4852 7.81261 17.7561C8.08347 18.0269 8.45743 18.1947 8.86982 18.1947C9.69464 18.1946 10.3657 17.5236 10.3657 16.6988L10.3657 15.7809ZM8.86982 17.3448C8.51365 17.3448 8.22389 17.055 8.22389 16.6988L8.22389 15.781C8.22386 15.4248 8.51362 15.135 8.86982 15.135C9.04789 15.135 9.20938 15.2074 9.32636 15.3244C9.44334 15.4414 9.51576 15.6029 9.51576 15.781L9.51576 16.6988C9.51576 17.055 9.226 17.3448 8.86982 17.3448Z" fill="#57535A"/>
<path d="M16.1091 17.3448L15.1323 17.3448C15.0781 17.3449 15.0341 17.3008 15.0341 17.2465L15.0341 16.6649L15.68 16.6649C15.9147 16.6649 16.1049 16.4746 16.105 16.2399C16.105 16.0052 15.9147 15.815 15.68 15.8149L15.0341 15.8149L15.0341 15.2333C15.0341 15.1791 15.0781 15.135 15.1323 15.135L16.1092 15.135C16.3438 15.135 16.5341 14.9448 16.5341 14.7101C16.5341 14.4754 16.3438 14.2851 16.1092 14.2851H15.1323C14.6095 14.2852 14.1842 14.7105 14.1841 15.2333L14.1841 17.2466C14.1841 17.4999 14.2828 17.738 14.4619 17.9171C14.6409 18.0961 14.8791 18.1948 15.1323 18.1948L16.1091 18.1948C16.3438 18.1948 16.534 18.0045 16.5341 17.7698C16.5341 17.5351 16.3438 17.3449 16.1091 17.3448Z" fill="#57535A"/>
<path d="M12.6925 15.1351H13.2492C13.4838 15.1351 13.6741 14.9448 13.6741 14.7101C13.6741 14.4754 13.4838 14.2852 13.2492 14.2852H12.2676C12.2676 14.2852 12.2675 14.2852 12.2675 14.2852C12.2675 14.2852 12.2674 14.2852 12.2674 14.2852L11.2858 14.2852C11.0512 14.2852 10.8609 14.4755 10.8609 14.7101C10.8609 14.8275 10.9085 14.9337 10.9854 15.0106C11.0622 15.0875 11.1685 15.1351 11.2858 15.1351L11.8425 15.1351L11.8425 17.7698C11.8425 17.8872 11.8901 17.9934 11.967 18.0703C12.0439 18.1472 12.1501 18.1948 12.2675 18.1948C12.5021 18.1948 12.6924 18.0045 12.6924 17.7698L12.6925 15.1351Z" fill="#57535A"/>
<path d="M20.8765 9.99771L17.04 6.1663C16.9606 6.08686 16.8528 6.04233 16.7406 6.04233H15.8231L16.9137 4.95173C17.0792 4.78622 17.0792 4.51791 16.9137 4.35256L13.6853 1.12414C13.5198 0.958621 13.2515 0.958621 13.086 1.12414L11.7454 2.46483L8.1633 6.0468C8.14427 6.04415 8.12507 6.04233 8.10537 6.04233H5.25367C5.14111 6.04233 5.03336 6.08702 4.95391 6.16663L1.12499 9.99787V9.99804C1.04836 10.0747 1.00085 10.1806 1.00085 10.2976V22.271C1.00085 22.5051 1.19054 22.6947 1.42458 22.6947H20.5771C20.8112 22.6947 21.0009 22.5051 21.0009 22.271V17.9793C21.0009 17.7453 20.8112 17.5556 20.5771 17.5556C20.3431 17.5556 20.1534 17.7453 20.1534 17.9793V21.8473H1.84831V10.7214H20.1534V14.5893C20.1534 14.8234 20.3431 15.0131 20.5771 15.0131C20.8112 15.0131 21.0009 14.8234 21.0009 14.5893V10.2976C21.0009 10.1804 20.9532 10.0745 20.8765 9.99771V9.99771ZM12.3446 3.06401L13.3857 2.0229L16.0148 4.65215L12.7089 7.95803H9.2198L8.33511 7.07351L12.3446 3.06401ZM2.44698 9.8739L5.42911 6.88978H7.35442C7.27844 7.04752 7.30542 7.24233 7.43618 7.37309L8.02129 7.95803H6.68539C6.45135 7.95803 6.26167 8.14788 6.26167 8.38176C6.26167 8.6158 6.45135 8.80548 6.68539 8.80548H15.3161C15.5502 8.80548 15.7399 8.6158 15.7399 8.38176C15.7399 8.14788 15.5502 7.95803 15.3161 7.95803H13.9073L14.9757 6.88978H16.5651L19.5531 9.8739H2.44698Z" fill="#57535A" stroke="#57535A" stroke-width="0.4"/>
<path d="M20.5771 15.8603C20.4655 15.8603 20.3563 15.9057 20.2775 15.9846C20.1987 16.0634 20.1534 16.1727 20.1534 16.2841C20.1534 16.396 20.1987 16.5049 20.2775 16.5842C20.3563 16.6629 20.4655 16.7078 20.5771 16.7078C20.6885 16.7078 20.7977 16.6629 20.8767 16.5842C20.9555 16.5049 21.0008 16.3956 21.0008 16.2841C21.0008 16.1727 20.9555 16.0638 20.8767 15.9846C20.7977 15.9057 20.6885 15.8603 20.5771 15.8603Z" fill="#57535A" stroke="#57535A" stroke-width="0.4"/>
</svg>
